<svg height="412pt" viewBox="0 0 412 412.005" width="412pt" xmlns="http://www.w3.org/2000/svg" xmlns:xlink="http://www.w3.org/1999/xlink"><linearGradient id="a"><stop offset="0" stop-color="#00efd1"/><stop offset="1" stop-color="#00acea"/></linearGradient><linearGradient id="b" gradientTransform="matrix(1 0 0 -1 -49.9975 464)" gradientUnits="userSpaceOnUse" x1="256.002" x2="256.002" xlink:href="#a" y1="470.857" y2="24.04"/><linearGradient id="c" gradientTransform="matrix(1 0 0 -1 -49.9975 464)" gradientUnits="userSpaceOnUse" x1="256" x2="256" xlink:href="#a" y1="470.857" y2="24.04"/><path d="m402.960938 167.3125-35.550782-3.421875c-3.933594-14.851563-9.925781-29.082031-17.808594-42.269531l22.59375-27.25c3.28125-3.957032 3.03125-9.757813-.585937-13.410156l-40.074219-40.535157c-3.640625-3.683593-9.492187-3.976562-13.484375-.675781l-27.359375 22.628906c-13.214844-7.851562-27.441406-13.855468-42.28125-17.84375l-3.425781-35.5c-.5-5.125-4.808594-9.035156-9.957031-9.035156h-57.539063c-5.152343 0-9.460937 3.914062-9.953125 9.039062l-3.425781 35.492188c-14.875 3.929688-29.128906 9.921875-42.34375 17.796875l-27.300781-22.574219c-3.972656-3.285156-9.792969-3.011718-13.441406.628906l-40.582032 40.53125c-3.65625 3.648438-3.929687 9.484376-.632812 13.457032l22.644531 27.3125c-7.851563 13.1875-13.855469 27.386718-17.851563 42.207031l-35.550781 3.421875c-5.132812.492188-9.04687475 4.800781-9.04687475 9.953125v57.46875c0 5.148437 3.91406275 9.460937 9.03906275 9.953125l35.550781 3.421875c3.933594 14.851563 9.925781 29.082031 17.808594 42.269531l-22.59375 27.25c-3.296875 3.972656-3.023438 9.808594.632812 13.457032l40.585938 40.535156c3.648437 3.640625 9.46875 3.914062 13.441406.628906l27.359375-22.628906c13.214844 7.851562 27.441406 13.855468 42.28125 17.84375l3.425781 35.5c.496094 5.128906 4.804688 9.039062 9.957032 9.039062h57.539062c5.152344 0 9.460938-3.910156 9.953125-9.039062l3.425781-35.488282c14.875-3.929687 29.128906-9.921874 42.34375-17.800781l27.300782 22.578125c3.972656 3.285156 9.792968 3.011719 13.441406-.632812l40.585937-40.53125c3.652344-3.652344 3.925781-9.484375.628907-13.460938l-22.644532-27.308594c7.855469-13.191406 13.863282-27.398437 17.859375-42.21875l35.046875-3.417968c5.125-.5 9.03125-4.804688 9.03125-9.953125v-57.464844c0-5.152344-3.914062-9.460937-9.042968-9.953125zm-10.957032 58.347656-33.101562 3.226563c-4.324219.421875-7.878906 3.589843-8.800782 7.835937-3.886718 17.457032-10.90625 34.066406-20.71875 49.023438-2.367187 3.667968-2.085937 8.449218.703126 11.8125l21.410156 25.820312-27.699219 27.664063-25.875-21.398438c-3.402344-2.8125-8.246094-3.066406-11.917969-.617187-14.90625 9.847656-31.511718 16.835937-48.972656 20.613281-4.253906.917969-7.425781 4.480469-7.84375 8.8125l-3.238281 33.546875h-39.378907l-3.238281-33.546875c-.417969-4.332031-3.589843-7.894531-7.84375-8.8125-17.480469-3.882813-34.113281-10.894531-49.101562-20.695313-3.660157-2.359374-8.429688-2.078124-11.789063.699219l-25.875 21.402344-27.699218-27.667969 21.410156-25.820312c2.824218-3.40625 3.074218-8.257813.621094-11.9375-9.859376-14.875-16.855469-31.457032-20.636719-48.898438-.921875-4.253906-4.484375-7.421875-8.816407-7.839844l-33.597656-3.234374v-39.300782l33.597656-3.234375c4.332032-.414062 7.894532-3.585937 8.816407-7.835937 3.890625-17.457032 10.910156-34.066406 20.71875-49.023438 2.367187-3.667968 2.085937-8.449218-.703125-11.8125l-21.40625-25.820312 27.699218-27.667969 25.871094 21.402344c3.402344 2.8125 8.246094 3.0625 11.917969.617187 14.90625-9.847656 31.511719-16.839844 48.972656-20.613281 4.253907-.917969 7.425781-4.480469 7.84375-8.8125l3.238281-33.546875h39.378907l3.238281 33.546875c.417969 4.332031 3.589844 7.894531 7.84375 8.8125 17.480469 3.882813 34.113281 10.894531 49.097656 20.695313 3.664063 2.359374 8.433594 2.078124 11.792969-.699219l25.828125-21.363281 27.273438 27.585937-21.449219 25.867187c-2.824219 3.402344-3.074219 8.257813-.621094 11.933594 9.855469 14.875 16.855469 31.460938 20.636719 48.898438.917968 4.253906 4.484375 7.421875 8.8125 7.839844l33.601562 3.234374zm0 0" fill="url(#b)"/><path d="m206.003906 111.539062c-52.171875 0-94.464844 42.289063-94.464844 94.460938s42.292969 94.460938 94.464844 94.460938c52.167969 0 94.460938-42.289063 94.460938-94.460938-.058594-52.144531-42.316406-94.402344-94.460938-94.460938zm0 168.921876c-41.125 0-74.464844-33.335938-74.464844-74.460938s33.339844-74.460938 74.464844-74.460938c41.121094 0 74.460938 33.335938 74.460938 74.460938-.046875 41.105469-33.355469 74.414062-74.460938 74.460938zm0 0" fill="url(#c)"/></svg>